<?xml version="1.0" encoding="UTF-8"?>
<svg version="1.1" xmlns="http://www.w3.org/2000/svg" width="500" height="500">
<path d="M0 0 C227 0 227 0 330 1 C330 1.66 330 2.32 330 3 C333.3 3 336.6 3 340 3 C340 3.66 340 4.32 340 5 C341.5778125 4.9690625 341.5778125 4.9690625 343.1875 4.9375 C346.32704904 4.98896802 348.96883396 5.26517187 352 6 C352 6.66 352 7.32 352 8 C353.65 8 355.3 8 357 8 C357 8.66 357 9.32 357 10 C358.32 10 359.64 10 361 10 C361 10.66 361 11.32 361 12 C364.96 12.495 364.96 12.495 369 13 C369 13.66 369 14.32 369 15 C370.32 15 371.64 15 373 15 C373 15.66 373 16.32 373 17 C373.5775 17.12375 374.155 17.2475 374.75 17.375 C377.02335767 18.00648824 378.9253529 18.88858191 381 20 C381 20.66 381 21.32 381 22 C382.32 22 383.64 22 385 22 C385.33 22.66 385.66 23.32 386 24 C388.02463255 24.65213292 388.02463255 24.65213292 390 25 C390 25.66 390 26.32 390 27 C390.66 27 391.32 27 392 27 C392.33 27.66 392.66 28.32 393 29 C393.99 29.45375 394.98 29.9075 396 30.375 C399 32 399 32 399.875 34.1875 C399.91625 34.785625 399.9575 35.38375 400 36 C401.32 36.33 402.64 36.66 404 37 C404.33 38.32 404.66 39.64 405 41 C406.32 41 407.64 41 409 41 C410.75 42.375 410.75 42.375 412 44 C412 44.66 412 45.32 412 46 C412.66 46 413.32 46 414 46 C414 46.66 414 47.32 414 48 C414.99 48.33 415.98 48.66 417 49 C417 49.66 417 50.32 417 51 C417.66 51 418.32 51 419 51 C419 51.66 419 52.32 419 53 C419.66 53 420.32 53 421 53 C422.625 54.375 422.625 54.375 424 56 C424 56.66 424 57.32 424 58 C424.66 58 425.32 58 426 58 C426 58.99 426 59.98 426 61 C426.66 61 427.32 61 428 61 C428.33 62.32 428.66 63.64 429 65 C429.66 65 430.32 65 431 65 C431 65.66 431 66.32 431 67 C431.639375 67.226875 432.27875 67.45375 432.9375 67.6875 C435 69 435 69 435.75 71.625 C435.8325 72.40875 435.915 73.1925 436 74 C435.34 74 434.68 74 434 74 C433.67 74.99 433.34 75.98 433 77 C432.34 77 431.68 77 431 77 C431 77.66 431 78.32 431 79 C430.34 79 429.68 79 429 79 C428.67 79.99 428.34 80.98 428 82 C427.34 82 426.68 82 426 82 C426 82.66 426 83.32 426 84 C425.01 84 424.02 84 423 84 C423 84.66 423 85.32 423 86 C422.34 86 421.68 86 421 86 C421 86.66 421 87.32 421 88 C419.68 88.33 418.36 88.66 417 89 C416.9175 89.598125 416.835 90.19625 416.75 90.8125 C415.77705573 93.65025411 414.55550687 94.49676067 412 96 C411.01 96 410.02 96 409 96 C409 96.66 409 97.32 409 98 C408.34 98 407.68 98 407 98 C407 98.66 407 99.32 407 100 C405.625 101.625 405.625 101.625 404 103 C403.34 103 402.68 103 402 103 C402 103.66 402 104.32 402 105 C399.16769504 108.22568064 397.25674062 110.23986775 393 111 C392.67 111.66 392.34 112.32 392 113 C391.34 113 390.68 113 390 113 C390 113.66 390 114.32 390 115 C389.34 115 388.68 115 388 115 C388 115.66 388 116.32 388 117 C386.625 118.625 386.625 118.625 385 120 C384.34 120 383.68 120 383 120 C383 120.66 383 121.32 383 122 C382.01 122 381.02 122 380 122 C380 122.66 380 123.32 380 124 C378.68 124.33 377.36 124.66 376 125 C376 125.66 376 126.32 376 127 C373.69 127 371.38 127 369 127 C369 126.01 369 125.02 369 124 C368.34 124 367.68 124 367 124 C367 123.34 367 122.68 367 122 C366.34 122 365.68 122 365 122 C364.67 120.35 364.34 118.7 364 117 C363.34 117 362.68 117 362 117 C362 116.34 362 115.68 362 115 C361.34 115 360.68 115 360 115 C358.375 113.625 358.375 113.625 357 112 C357 111.34 357 110.68 357 110 C356.34 110 355.68 110 355 110 C352.375 107.625 352.375 107.625 350 105 C350 104.34 350 103.68 350 103 C349.34 103 348.68 103 348 103 C346.375 101.625 346.375 101.625 345 100 C345 99.34 345 98.68 345 98 C343.68 98 342.36 98 341 98 C339.95374591 96.70264493 338.95298777 95.36733028 338 94 C337.01 93.67 336.02 93.34 335 93 C335 92.34 335 91.68 335 91 C333.68 91 332.36 91 331 91 C331 90.34 331 89.68 331 89 C328.69 88.67 326.38 88.34 324 88 C324 87.34 324 86.68 324 86 C322.35 86 320.7 86 319 86 C319 85.34 319 84.68 319 84 C318.31292969 84 317.62585938 84 316.91796875 84 C309.9453125 84 302.97265625 84 296 84 C296 84.66 296 85.32 296 86 C294.68 86 293.36 86 292 86 C292 86.66 292 87.32 292 88 C290.96875 88.350625 289.9375 88.70125 288.875 89.0625 C284.90832891 90.71997311 282.81745233 93.19224801 280.26171875 96.57421875 C279.84535156 97.04472656 279.42898438 97.51523438 279 98 C278.34 98 277.68 98 277 98 C277 98.66 277 99.32 277 100 C276.34 100 275.68 100 275 100 C275 106.93 275 113.86 275 121 C275.66 121 276.32 121 277 121 C277 121.66 277 122.32 277 123 C277.66 123 278.32 123 279 123 C279.12375 123.639375 279.2475 124.27875 279.375 124.9375 C279.684375 125.9584375 279.684375 125.9584375 280 127 C280.66 127.33 281.32 127.66 282 128 C282 128.66 282 129.32 282 130 C282.66 130 283.32 130 284 130 C284.33 131.65 284.66 133.3 285 135 C285.66 135 286.32 135 287 135 C287 135.66 287 136.32 287 137 C287.66 137 288.32 137 289 137 C289 137.66 289 138.32 289 139 C289.99 139.33 290.98 139.66 292 140 C292 140.66 292 141.32 292 142 C293.65 142.33 295.3 142.66 297 143 C297 143.66 297 144.32 297 145 C297.66 145 298.32 145 299 145 C299 145.66 299 146.32 299 147 C299.66 147 300.32 147 301 147 C301 147.66 301 148.32 301 149 C301.66 149 302.32 149 303 149 C304.625 150.375 304.625 150.375 306 152 C306 152.66 306 153.32 306 154 C306.66 154 307.32 154 308 154 C309.625 155.375 309.625 155.375 311 157 C311 157.66 311 158.32 311 159 C311.66 159 312.32 159 313 159 C313 159.66 313 160.32 313 161 C314.65 161.33 316.3 161.66 318 162 C318 162.66 318 163.32 318 164 C318.66 164 319.32 164 320 164 C322.625 166.375 322.625 166.375 325 169 C325 169.66 325 170.32 325 171 C325.99 171 326.98 171 328 171 C328 171.66 328 172.32 328 173 C329.32 173.33 330.64 173.66 332 174 C332.33 175.32 332.66 176.64 333 178 C333.66 178 334.32 178 335 178 C335 178.66 335 179.32 335 180 C336.65 180.33 338.3 180.66 340 181 C340 181.66 340 182.32 340 183 C340.66 183 341.32 183 342 183 C342 183.66 342 184.32 342 185 C342.66 185 343.32 185 344 185 C345.625 186.375 345.625 186.375 347 188 C347 188.66 347 189.32 347 190 C347.598125 190.12375 348.19625 190.2475 348.8125 190.375 C351 191 351 191 354 193 C354 193.66 354 194.32 354 195 C354.66 195 355.32 195 356 195 C357.625 196.375 357.625 196.375 359 198 C359 198.66 359 199.32 359 200 C360.32 200 361.64 200 363 200 C364.78125 201.6796875 364.78125 201.6796875 366.5 203.875 C368.79997857 206.79179101 370.54756879 208.56148699 374 210 C374 210.66 374 211.32 374 212 C374.66 212 375.32 212 376 212 C376 212.66 376 213.32 376 214 C376.66 214 377.32 214 378 214 C378 214.66 378 215.32 378 216 C378.99 216.33 379.98 216.66 381 217 C381 217.66 381 218.32 381 219 C381.66 219 382.32 219 383 219 C383 219.66 383 220.32 383 221 C384.65 221.33 386.3 221.66 388 222 C388 222.66 388 223.32 388 224 C388.66 224 389.32 224 390 224 C390 224.66 390 225.32 390 226 C390.66 226 391.32 226 392 226 C393.625 227.375 393.625 227.375 395 229 C395 229.66 395 230.32 395 231 C395.66 231 396.32 231 397 231 C398.625 232.375 398.625 232.375 400 234 C400 234.66 400 235.32 400 236 C400.66 236 401.32 236 402 236 C402 236.66 402 237.32 402 238 C402.66 238 403.32 238 404 238 C405.625 239.375 405.625 239.375 407 241 C407 241.66 407 242.32 407 243 C407.66 243 408.32 243 409 243 C409.33 244.65 409.66 246.3 410 248 C410.66 248 411.32 248 412 248 C412 248.66 412 249.32 412 250 C412.66 250 413.32 250 414 250 C414 250.66 414 251.32 414 252 C414.639375 252.268125 415.27875 252.53625 415.9375 252.8125 C418 254 418 254 419 257 C419.66 257.33 420.32 257.66 421 258 C422.34839851 260.9347497 423.3001048 263.85047161 424 267 C424.66 267 425.32 267 426 267 C426 267.66 426 268.32 426 269 C426.66 269 427.32 269 428 269 C431 275.625 431 275.625 431 279 C431.66 279 432.32 279 433 279 C433.50559908 280.43554025 434.0042749 281.8735202 434.5 283.3125 C434.7784375 284.11300781 435.056875 284.91351563 435.34375 285.73828125 C436 288 436 288 436 291 C436.66 291 437.32 291 438 291 C438 293.31 438 295.62 438 298 C438.66 298 439.32 298 440 298 C440.99250545 303.70690634 441.10477512 309.21408489 441 315 C441.66 315 442.32 315 443 315 C443.0246501 320.10863896 443.04283607 325.21724359 443.05493164 330.32592773 C443.05997204 332.06519168 443.0668043 333.80445136 443.07543945 335.54370117 C443.08751792 338.03825937 443.09323108 340.53276173 443.09765625 343.02734375 C443.10281754 343.80963852 443.10797882 344.59193329 443.11329651 345.39793396 C443.11349226 347.26567114 443.06199694 349.13329204 443 351 C442.67 351.33 442.34 351.66 442 352 C441.60006314 354.68862664 441.24865457 357.36352217 440.9375 360.0625 C440.84662109 360.82111328 440.75574219 361.57972656 440.66210938 362.36132812 C440.4375626 364.2404301 440.21829022 366.12016095 440 368 C439.34 368 438.68 368 438 368 C438 369.98 438 371.96 438 374 C437.34 374 436.68 374 436 374 C435.67 377.3 435.34 380.6 435 384 C434.34 384 433.68 384 433 384 C433 384.99 433 385.98 433 387 C432.34 387 431.68 387 431 387 C430.87625 387.886875 430.7525 388.77375 430.625 389.6875 C430.04374451 392.76815411 429.49448886 395.24699421 428 398 C425.875 398.8125 425.875 398.8125 424 399 C424 400.32 424 401.64 424 403 C422.625 404.75 422.625 404.75 421 406 C420.34 406 419.68 406 419 406 C419 407.32 419 408.64 419 410 C417.625 411.75 417.625 411.75 416 413 C415.34 413 414.68 413 414 413 C414 413.66 414 414.32 414 415 C411.625 417.625 411.625 417.625 409 420 C408.34 420 407.68 420 407 420 C407 420.66 407 421.32 407 422 C405.625 423.625 405.625 423.625 404 425 C403.34 425 402.68 425 402 425 C402 425.66 402 426.32 402 427 C401.34 427 400.68 427 400 427 C400 427.66 400 428.32 400 429 C398.35 429.33 396.7 429.66 395 430 C395 430.66 395 431.32 395 432 C394.34 432 393.68 432 393 432 C393 432.66 393 433.32 393 434 C391.35 434.33 389.7 434.66 388 435 C388 435.66 388 436.32 388 437 C387.01 437 386.02 437 385 437 C385 437.66 385 438.32 385 439 C383.68 439 382.36 439 381 439 C381 439.66 381 440.32 381 441 C379.02 441.33 377.04 441.66 375 442 C375 442.66 375 443.32 375 444 C373.68 444 372.36 444 371 444 C371 444.66 371 445.32 371 446 C368.36 446.33 365.72 446.66 363 447 C363 447.66 363 448.32 363 449 C361.02 449 359.04 449 357 449 C357 449.66 357 450.32 357 451 C354.69 451 352.38 451 350 451 C350 451.66 350 452.32 350 453 C346.38132441 454.2062252 343.07493749 454.10816918 339.3125 454.0625 C338.61060547 454.05798828 337.90871094 454.05347656 337.18554688 454.04882812 C335.45699462 454.03706927 333.72848635 454.01913454 332 454 C332 454.66 332 455.32 332 456 C299 456 266 456 232 456 C232 455.34 232 454.68 232 454 C231.01 454 230.02 454 229 454 C229 454.66 229 455.32 229 456 C194.02 456 159.04 456 123 456 C123 456.66 123 457.32 123 458 C105.18 458 87.36 458 69 458 C69 457.01 69 456.02 69 455 C46.23 455 23.46 455 0 455 C0 304.85 0 154.7 0 0 Z M227 18 C227 41.1 227 64.2 227 88 C181.13 88 135.26 88 88 88 C88.33 113.74 88.66 139.48 89 166 C134.54 166 180.08 166 227 166 C227 170.95 227 175.9 227 181 C227.99 181 228.98 181 230 181 C230 181.66 230 182.32 230 183 C231.63724118 184.04748226 233.31085726 185.03845199 235 186 C237.58370379 187.8337229 240.14127558 189.69944697 242.6953125 191.57421875 C244.97353233 193.26305324 244.97353233 193.26305324 248 193 C248 193.66 248 194.32 248 195 C250.63684747 197.39820305 250.63684747 197.39820305 254 198 C254 198.66 254 199.32 254 200 C254.969375 200.268125 255.93875 200.53625 256.9375 200.8125 C257.948125 201.204375 258.95875 201.59625 260 202 C260.33 202.99 260.66 203.98 261 205 C262.32 205 263.64 205 265 205 C265 205.66 265 206.32 265 207 C265.66 207 266.32 207 267 207 C267.33 207.99 267.66 208.98 268 210 C268.66 210 269.32 210 270 210 C270 210.66 270 211.32 270 212 C270.66 212 271.32 212 272 212 C272.2475 212.639375 272.495 213.27875 272.75 213.9375 C273.81562433 216.18741541 273.81562433 216.18741541 276.125 216.75 C276.74375 216.8325 277.3625 216.915 278 217 C278 217.66 278 218.32 278 219 C278.66 219 279.32 219 280 219 C280 219.66 280 220.32 280 221 C283.44051028 224.6487256 287.15853891 227.53289058 292 229 C292 229.66 292 230.32 292 231 C292.66 231 293.32 231 294 231 C294 231.66 294 232.32 294 233 C294.66 233 295.32 233 296 233 C296.4021875 234.1446875 296.4021875 234.1446875 296.8125 235.3125 C297.95134505 237.88988618 298.81416671 239.26954864 301 241 C301.66 241 302.32 241 303 241 C303.33 242.32 303.66 243.64 304 245 C305.98 245.33 307.96 245.66 310 246 C310 246.66 310 247.32 310 248 C310.99 248 311.98 248 313 248 C313 248.66 313 249.32 313 250 C313.9075 250.598125 314.815 251.19625 315.75 251.8125 C318.92228999 253.94769518 320.68062507 256.01794652 323 259 C323.66 259 324.32 259 325 259 C325 259.99 325 260.98 325 262 C325.66 262 326.32 262 327 262 C327.2475 262.763125 327.495 263.52625 327.75 264.3125 C329.12130672 267.26080945 330.2351079 268.35834532 333 270 C333.66 270 334.32 270 335 270 C335 270.66 335 271.32 335 272 C335.99 272 336.98 272 338 272 C338 272.66 338 273.32 338 274 C340.63684747 276.39820305 340.63684747 276.39820305 344 277 C344.4640625 278.175625 344.4640625 278.175625 344.9375 279.375 C345.92875038 281.92330128 345.92875038 281.92330128 347 284 C347.66 284 348.32 284 349 284 C349.4640625 285.175625 349.4640625 285.175625 349.9375 286.375 C350.92875038 288.92330128 350.92875038 288.92330128 352 291 C352.66 291 353.32 291 354 291 C354 291.99 354 292.98 354 294 C354.66 294 355.32 294 356 294 C356.12375 294.7425 356.2475 295.485 356.375 296.25 C356.95486701 298.80141485 357.73708739 300.7267573 359 303 C359.66 303 360.32 303 361 303 C361.4640625 304.175625 361.4640625 304.175625 361.9375 305.375 C362.92875038 307.92330128 362.92875038 307.92330128 364 310 C364.66 310 365.32 310 366 310 C366 311.32 366 312.64 366 314 C366.66 314 367.32 314 368 314 C368.144375 314.763125 368.28875 315.52625 368.4375 316.3125 C368.9632594 319.08172908 368.9632594 319.08172908 370 322 C370.09153617 323.34005502 370.13066022 324.68416778 370.1328125 326.02734375 C370.13498779 326.81383301 370.13716309 327.60032227 370.1394043 328.41064453 C370.13465088 329.24450684 370.12989746 330.07836914 370.125 330.9375 C370.12089111 331.7919873 370.11678223 332.64647461 370.11254883 333.52685547 C370.02510115 343.48836831 369.7528378 352.65330964 366 362 C365.34 362 364.68 362 364 362 C363.566875 362.763125 363.13375 363.52625 362.6875 364.3125 C360.79250171 367.33046024 359.04625691 368.27104338 356 370 C356 370.66 356 371.32 356 372 C355.34 372 354.68 372 354 372 C354 372.66 354 373.32 354 374 C351.66785852 375.20628008 349.50357861 376.1654738 347 377 C347 377.66 347 378.32 347 379 C344.66785852 380.20628008 342.50357861 381.1654738 340 382 C340 382.66 340 383.32 340 384 C339.46375 384.12375 338.9275 384.2475 338.375 384.375 C335.5361714 385.12206016 332.77776798 386.05303364 330 387 C330 387.66 330 388.32 330 389 C327.69 389 325.38 389 323 389 C323 389.66 323 390.32 323 391 C314.42 391 305.84 391 297 391 C297 390.34 297 389.68 297 389 C292.66914029 387.70074209 288.48525648 386.656379 284 386 C284 385.34 284 384.68 284 384 C281.69 384 279.38 384 277 384 C277 383.34 277 382.68 277 382 C273.01939223 380.82923301 269.08378283 379.74250597 265 379 C265 378.34 265 377.68 265 377 C264.34 377 263.68 377 263 377 C263 376.34 263 375.68 263 375 C261.35 374.67 259.7 374.34 258 374 C258 373.34 258 372.68 258 372 C257.34 372 256.68 372 256 372 C256 371.34 256 370.68 256 370 C254.25048432 369.04078278 252.50036756 368.08266183 250.75 367.125 C249.77546875 366.59132813 248.8009375 366.05765625 247.796875 365.5078125 C245.54869592 364.29580534 243.2927195 363.12452433 241 362 C241 361.34 241 360.68 241 360 C240.34 360 239.68 360 239 360 C239 359.34 239 358.68 239 358 C238.34 358 237.68 358 237 358 C236.67 357.34 236.34 356.68 236 356 C233.97536745 355.34786708 233.97536745 355.34786708 232 355 C232 354.34 232 353.68 232 353 C231.34 353 230.68 353 230 353 C229.731875 352.443125 229.46375 351.88625 229.1875 351.3125 C227.89100504 348.78774666 226.57523677 346.36285516 225 344 C224.34 344 223.68 344 223 344 C222.7525 343.4225 222.505 342.845 222.25 342.25 C220.81700012 339.67060021 219.21575324 337.93878408 217 336 C216.34 336 215.68 336 215 336 C215 335.34 215 334.68 215 334 C211.77885843 331.68407978 211.77885843 331.68407978 208 331 C208 330.34 208 329.68 208 329 C204.77885843 326.68407978 204.77885843 326.68407978 201 326 C201 325.34 201 324.68 201 324 C200.34 324 199.68 324 199 324 C198.731875 323.360625 198.46375 322.72125 198.1875 322.0625 C197.11332248 319.66868314 197.11332248 319.66868314 194 319 C193 317.203125 193 317.203125 192 315 C191.03327536 313.56042092 190.03215692 312.14341184 189 310.75 C188.484375 310.04359375 187.96875 309.3371875 187.4375 308.609375 C186.963125 308.07828125 186.48875 307.5471875 186 307 C185.34 307 184.68 307 184 307 C184 306.34 184 305.68 184 305 C183.34 305 182.68 305 182 305 C181.505 303.515 181.505 303.515 181 302 C180.34 302 179.68 302 179 302 C179 301.34 179 300.68 179 300 C178.34 300 177.68 300 177 300 C177 299.34 177 298.68 177 298 C176.34 298 175.68 298 175 298 C174.67 296.35 174.34 294.7 174 293 C173.34 293 172.68 293 172 293 C172 292.34 172 291.68 172 291 C171.34 291 170.68 291 170 291 C169.896875 290.4225 169.79375 289.845 169.6875 289.25 C168.89103535 286.64338842 167.80934723 285.0264689 166 283 C165.34 283 164.68 283 164 283 C164 282.34 164 281.68 164 281 C161.09451118 278.95830515 159.59857954 278 156 278 C156 277.34 156 276.68 156 276 C155.01 276 154.02 276 153 276 C153 275.34 153 274.68 153 274 C152.0925 273.443125 151.185 272.88625 150.25 272.3125 C146.31902949 269.51546329 145.12861436 267.25722872 143 263 C142.34 263 141.68 263 141 263 C141 262.01 141 261.02 141 260 C140.34 260 139.68 260 139 260 C138.67 257.36 138.34 254.72 138 252 C121.5 252 105 252 88 252 C88.33 312.72 88.66 373.44 89 436 C103.85 436.33 118.7 436.66 134 437 C134.33 437.33 134.66 437.66 135 438 C137.52596259 438.23653523 140.03107207 438.42173692 142.5625 438.5625 C143.27341797 438.60568359 143.98433594 438.64886719 144.71679688 438.69335938 C146.47761912 438.79971777 148.2387832 438.90038846 150 439 C150 439.33 150 439.66 150 440 C157.26 440 164.52 440 172 440 C172 439.67 172 439.34 172 439 C190.48 438.67 208.96 438.34 228 438 C228 438.66 228 439.32 228 440 C228.55461914 440.05534912 229.10923828 440.11069824 229.68066406 440.16772461 C232.2040917 440.42128107 234.72703883 440.67934505 237.25 440.9375 C238.12269531 441.02451172 238.99539063 441.11152344 239.89453125 441.20117188 C240.73886719 441.28818359 241.58320313 441.37519531 242.453125 441.46484375 C243.61569824 441.58267212 243.61569824 441.58267212 244.80175781 441.70288086 C247 442 247 442 249.02856445 442.52294922 C252.61124975 443.38989251 256.26838639 443.19073777 259.9375 443.1875 C260.78562256 443.18741943 261.63374512 443.18733887 262.50756836 443.18725586 C268.49090669 443.13343358 274.21375595 442.57746527 280.109375 441.51171875 C284.382236 440.75530687 288.67914383 440.37063778 293 440 C293 439.34 293 438.68 293 438 C294.49853516 438.01740234 294.49853516 438.01740234 296.02734375 438.03515625 C297.31769531 438.04417969 298.60804688 438.05320312 299.9375 438.0625 C301.86916016 438.07990234 301.86916016 438.07990234 303.83984375 438.09765625 C306.86298403 438.36532549 306.86298403 438.36532549 308 437 C309.49707379 436.85348351 311.00063992 436.77248402 312.50390625 436.71875 C313.94044556 436.66364258 313.94044556 436.66364258 315.40600586 436.60742188 C316.96847046 436.55424805 316.96847046 436.55424805 318.5625 436.5 C319.62412354 436.45939453 320.68574707 436.41878906 321.77954102 436.37695312 C326.34333448 436.20254491 330.90751423 436.03933563 335.47167969 435.875 C338.79377507 435.75381784 342.11562497 435.62705661 345.4375 435.5 C346.47914307 435.46455078 347.52078613 435.42910156 348.59399414 435.39257812 C350.03053345 435.3374707 350.03053345 435.3374707 351.49609375 435.28125 C352.34357178 435.25095703 353.1910498 435.22066406 354.06420898 435.18945312 C356.00535637 435.20626697 356.00535637 435.20626697 357 434 C359.65463121 433.54540142 362.32189138 433.29756762 365 433 C365 432.34 365 431.68 365 431 C365.7425 430.87625 366.485 430.7525 367.25 430.625 C369.80141485 430.04513299 371.7267573 429.26291261 374 428 C374 427.34 374 426.68 374 426 C375.32 426 376.64 426 378 426 C378 425.34 378 424.68 378 424 C379.65 423.67 381.3 423.34 383 423 C383 422.34 383 421.68 383 421 C383.99 421 384.98 421 386 421 C386 420.34 386 419.68 386 419 C387.65 418.67 389.3 418.34 391 418 C391 417.34 391 416.68 391 416 C391.66 416 392.32 416 393 416 C393 415.34 393 414.68 393 414 C393.639375 413.731875 394.27875 413.46375 394.9375 413.1875 C397.33131686 412.11332248 397.33131686 412.11332248 398 409 C398.99 408.67 399.98 408.34 401 408 C401 407.34 401 406.68 401 406 C401.66 406 402.32 406 403 406 C403 404.35 403 402.7 403 401 C403.66 401 404.32 401 405 401 C407.04169485 398.09451118 408 396.59857954 408 393 C408.66 393 409.32 393 410 393 C412.64472478 386.71724311 412.64472478 386.71724311 413 380 C413.66 380 414.32 380 415 380 C415 378.68 415 377.36 415 376 C415.66 376 416.32 376 417 376 C417.13277344 375.01257813 417.26554687 374.02515625 417.40234375 373.0078125 C417.57894531 371.72648437 417.75554687 370.44515625 417.9375 369.125 C418.19853516 367.21074219 418.19853516 367.21074219 418.46484375 365.2578125 C419 362 419 362 420 360 C420.07092842 357.7927077 420.08415025 355.58332548 420.0625 353.375 C420.04896484 351.59222656 420.04896484 351.59222656 420.03515625 349.7734375 C420.02355469 348.85820312 420.01195312 347.94296875 420 347 C420.66 347 421.32 347 422 347 C422.12375 345.948125 422.2475 344.89625 422.375 343.8125 C423 340 423 340 424.0625 337.4375 C425.18894196 334.5087509 425.14470243 332.11110233 425 329 C425.66 329 426.32 329 427 329 C426.8453125 328.43756592 426.690625 327.87513184 426.53125 327.2956543 C425.98569958 324.93820458 425.7145665 322.67885444 425.5 320.26953125 C425.4175 319.38458984 425.335 318.49964844 425.25 317.58789062 C425.08228621 315.72600548 424.91563248 313.86402457 424.75 312.00195312 C424.6675 311.12087891 424.585 310.23980469 424.5 309.33203125 C424.4278125 308.52483643 424.355625 307.7176416 424.28125 306.88598633 C424.18995852 304.99159914 424.18995852 304.99159914 423 304 C422.76712992 302.31816052 422.58735834 300.6287584 422.4375 298.9375 C422.31181641 297.55884766 422.31181641 297.55884766 422.18359375 296.15234375 C422.12300781 295.44207031 422.06242187 294.73179687 422 294 C421.34 294 420.68 294 420 294 C419.87625 293.278125 419.7525 292.55625 419.625 291.8125 C419.0095069 289.04278106 418.11555626 286.6029646 417 284 C416.34 284 415.68 284 415 284 C414.87625 283.278125 414.7525 282.55625 414.625 281.8125 C414.0095069 279.04278106 413.11555626 276.6029646 412 274 C411.34 274 410.68 274 410 274 C410 273.34 410 272.68 410 272 C408.66666667 270.33333333 408.66666667 270.33333333 407 269 C406.34 269 405.68 269 405 269 C405 268.34 405 267.68 405 267 C402.66666667 264.33333333 402.66666667 264.33333333 400 262 C399.34 262 398.68 262 398 262 C398 261.34 398 260.68 398 260 C396.68799596 258.64567325 395.35368596 257.31266518 394 256 C393.67 255.34 393.34 254.68 393 254 C392.34 254 391.68 254 391 254 C390.7525 253.401875 390.505 252.80375 390.25 252.1875 C388.81927475 249.68373081 387.4308418 248.51927612 385 247 C384.34 247 383.68 247 383 247 C383 246.34 383 245.68 383 245 C382.34 245 381.68 245 381 245 C381 244.34 381 243.68 381 243 C380.360625 242.525625 379.72125 242.05125 379.0625 241.5625 C377 240 377 240 376 237 C375.34 237 374.68 237 374 237 C374 236.34 374 235.68 374 235 C373.34 235 372.68 235 372 235 C371.7525 234.360625 371.505 233.72125 371.25 233.0625 C370.18437567 230.81258459 370.18437567 230.81258459 367.875 230.25 C367.25625 230.1675 366.6375 230.085 366 230 C366 229.34 366 228.68 366 228 C362.77885843 225.68407978 362.77885843 225.68407978 359 225 C359 224.34 359 223.68 359 223 C358.34 223 357.68 223 357 223 C357 222.34 357 221.68 357 221 C356.34 221 355.68 221 355 221 C354.67 220.01 354.34 219.02 354 218 C353.34 218 352.68 218 352 218 C352 217.34 352 216.68 352 216 C351.34 216 350.68 216 350 216 C350 215.34 350 214.68 350 214 C348.66666667 212.33333333 348.66666667 212.33333333 347 211 C346.34 211 345.68 211 345 211 C345 210.34 345 209.68 345 209 C344.34 209 343.68 209 343 209 C342.67 208.01 342.34 207.02 342 206 C341.34 206 340.68 206 340 206 C340 205.34 340 204.68 340 204 C336.77885843 201.68407978 336.77885843 201.68407978 333 201 C333 200.34 333 199.68 333 199 C332.34 199 331.68 199 331 199 C331 198.34 331 197.68 331 197 C327.77885843 194.68407978 327.77885843 194.68407978 324 194 C324 193.34 324 192.68 324 192 C323.01 192 322.02 192 321 192 C320.67 191.01 320.34 190.02 320 189 C319.34 189 318.68 189 318 189 C318 188.34 318 187.68 318 187 C317.34 187 316.68 187 316 187 C316 186.34 316 185.68 316 185 C315.34 185 314.68 185 314 185 C313.67 184.01 313.34 183.02 313 182 C312.01 182 311.02 182 310 182 C310 181.34 310 180.68 310 180 C307.36315253 177.60179695 307.36315253 177.60179695 304 177 C304 176.34 304 175.68 304 175 C303.34 175 302.68 175 302 175 C301.5978125 174.0409375 301.5978125 174.0409375 301.1875 173.0625 C300.11332248 170.66868314 300.11332248 170.66868314 297 170 C297 169.34 297 168.68 297 168 C296.34 168 295.68 168 295 168 C294.5978125 167.0409375 294.5978125 167.0409375 294.1875 166.0625 C293.11332248 163.66868314 293.11332248 163.66868314 290 163 C289.33333333 161.66666667 288.66666667 160.33333333 288 159 C287.01 158.67 286.02 158.34 285 158 C285 157.34 285 156.68 285 156 C284.34 156 283.68 156 283 156 C282.5978125 155.0409375 282.5978125 155.0409375 282.1875 154.0625 C281.11332248 151.66868314 281.11332248 151.66868314 278 151 C277.33333333 149.66666667 276.66666667 148.33333333 276 147 C275.01 146.67 274.02 146.34 273 146 C271.875 143.5625 271.875 143.5625 271 141 C270.67 140.34 270.34 139.68 270 139 C269.34 139 268.68 139 268 139 C267.773125 138.360625 267.54625 137.72125 267.3125 137.0625 C265.51434174 132.86679739 263.26095979 128.96099444 261 125 C260.34 125 259.68 125 259 125 C259.04125 124.278125 259.0825 123.55625 259.125 122.8125 C259.17109276 120.02434198 259.17109276 120.02434198 258.01953125 117.7734375 C255.69495921 111.44988903 255.93511697 103.3261685 257.98046875 96.9375 C260.0745726 92.60753757 262.38114918 89.21675628 266 86 C266 85.34 266 84.68 266 84 C266.66 84 267.32 84 268 84 C268 83.34 268 82.68 268 82 C268.66 82 269.32 82 270 82 C270 81.34 270 80.68 270 80 C270.78375 79.690625 271.5675 79.38125 272.375 79.0625 C274.92330128 78.07124962 274.92330128 78.07124962 277 77 C277 76.34 277 75.68 277 75 C278.65 75 280.3 75 282 75 C282 74.34 282 73.68 282 73 C282.71027344 72.93941406 283.42054688 72.87882812 284.15234375 72.81640625 C285.07144531 72.73261719 285.99054688 72.64882812 286.9375 72.5625 C287.85402344 72.48128906 288.77054688 72.40007812 289.71484375 72.31640625 C291.96159732 72.23955024 291.96159732 72.23955024 293 71 C295.68050699 70.88650002 298.33424943 70.8358156 301.015625 70.83203125 C302.22759552 70.82703865 302.22759552 70.82703865 303.46405029 70.82194519 C305.17898996 70.81687085 306.89393955 70.81453702 308.60888672 70.81469727 C311.22510276 70.81252071 313.84089047 70.79439825 316.45703125 70.77539062 C318.12239439 70.77245477 319.78775954 70.77047126 321.453125 70.76953125 C322.23351135 70.76234573 323.01389771 70.75516022 323.81793213 70.74775696 C328.04825059 70.76541266 331.1538347 71.28922771 335 73 C336.32 73 337.64 73 339 73 C339 73.66 339 74.32 339 75 C340.45537568 75.83848804 341.91440373 76.67063934 343.375 77.5 C344.18710937 77.9640625 344.99921875 78.428125 345.8359375 78.90625 C347.89336874 80.15035859 347.89336874 80.15035859 350 80 C350 80.66 350 81.32 350 82 C353.22114157 84.31592022 353.22114157 84.31592022 357 85 C357 85.66 357 86.32 357 87 C357.66 87 358.32 87 359 87 C359 87.66 359 88.32 359 89 C359.66 89 360.32 89 361 89 C361.33 89.99 361.66 90.98 362 92 C362.66 92 363.32 92 364 92 C364 92.66 364 93.32 364 94 C364.66 94 365.32 94 366 94 C366 94.66 366 95.32 366 96 C366.66 96 367.32 96 368 96 C368.33 96.99 368.66 97.98 369 99 C369.66 99 370.32 99 371 99 C371 99.66 371 100.32 371 101 C371.66 101 372.32 101 373 101 C373.33 101.99 373.66 102.98 374 104 C375.65 103.67 377.3 103.34 379 103 C379 102.34 379 101.68 379 101 C379.66 101 380.32 101 381 101 C381 100.34 381 99.68 381 99 C381.78375 98.690625 382.5675 98.38125 383.375 98.0625 C385.92330128 97.07124962 385.92330128 97.07124962 388 96 C388 95.34 388 94.68 388 94 C388.66 94 389.32 94 390 94 C390 93.34 390 92.68 390 92 C390.5775 91.87625 391.155 91.7525 391.75 91.625 C394.02335767 90.99351176 395.9253529 90.11141809 398 89 C398 88.34 398 87.68 398 87 C398.66 87 399.32 87 400 87 C400 86.34 400 85.68 400 85 C401.65 84.34 403.3 83.68 405 83 C404.34 82.67 403.68 82.34 403 82 C403 80.68 403 79.36 403 78 C402.34 78 401.68 78 401 78 C400.67 76.02 400.34 74.04 400 72 C399.34 72 398.68 72 398 72 C398 71.34 398 70.68 398 70 C397.34 70 396.68 70 396 70 C395.87625 69.0925 395.7525 68.185 395.625 67.25 C395.07890323 64.41029677 394.42736197 62.47409409 393 60 C392.34 60 391.68 60 391 60 C390.67 59.01 390.34 58.02 390 57 C389.34 57 388.68 57 388 57 C388 56.34 388 55.68 388 55 C387.34 55 386.68 55 386 55 C385.67 54.01 385.34 53.02 385 52 C383.5459375 51.5359375 383.5459375 51.5359375 382.0625 51.0625 C379 50 379 50 377.8125 47.9375 C377.544375 47.298125 377.27625 46.65875 377 46 C376.01 45.67 375.02 45.34 374 45 C374 44.34 374 43.68 374 43 C373.34 43 372.68 43 372 43 C371.67 42.01 371.34 41.02 371 40 C368.69 40 366.38 40 364 40 C364 39.34 364 38.68 364 38 C362.35 38 360.7 38 359 38 C359 37.34 359 36.68 359 36 C355.68885166 34.87119943 352.41021743 33.78697325 349 33 C349 32.34 349 31.68 349 31 C343.26709085 28.29155119 343.26709085 28.29155119 337 28 C337 27.34 337 26.68 337 26 C333.18384532 23.52954197 329.15255752 23.56168088 324.75 23.375 C324.00492188 23.33632813 323.25984375 23.29765625 322.4921875 23.2578125 C320.6618476 23.16394892 318.83095857 23.08090282 317 23 C317 22.34 317 21.68 317 21 C314.36 21 311.72 21 309 21 C309 20.34 309 19.68 309 19 C299.20175344 18.06998152 289.46956881 17.86605707 279.63671875 17.90234375 C278.27982627 17.90381913 276.92293321 17.90483616 275.56604004 17.90539551 C270.60651786 17.91057934 265.64700796 17.92454011 260.6875 17.9375 C244.0121875 17.9684375 244.0121875 17.9684375 227 18 Z M227 204 C227 219.84 227 235.68 227 252 C205.55 252 184.1 252 162 252 C162 252.99 162 253.98 162 255 C162.66 255 163.32 255 164 255 C164.33 255.99 164.66 256.98 165 258 C165.66 258 166.32 258 167 258 C167 258.66 167 259.32 167 260 C167.66 260 168.32 260 169 260 C169 260.66 169 261.32 169 262 C169.66 262 170.32 262 171 262 C171.33 262.99 171.66 263.98 172 265 C172.66 265 173.32 265 174 265 C174 265.66 174 266.32 174 267 C174.66 267 175.32 267 176 267 C176.495 268.485 176.495 268.485 177 270 C177.66 270 178.32 270 179 270 C179 270.66 179 271.32 179 272 C179.66 272 180.32 272 181 272 C181 272.66 181 273.32 181 274 C181.66 274 182.32 274 183 274 C183.33 274.99 183.66 275.98 184 277 C184.66 277 185.32 277 186 277 C186 277.66 186 278.32 186 279 C186.66 279 187.32 279 188 279 C188.33 279.99 188.66 280.98 189 282 C189.66 282 190.32 282 191 282 C191 282.66 191 283.32 191 284 C192.32 284 193.64 284 195 284 C195.268125 284.639375 195.53625 285.27875 195.8125 285.9375 C196.88667752 288.33131686 196.88667752 288.33131686 200 289 C200 289.66 200 290.32 200 291 C200.66 291 201.32 291 202 291 C202.33 292.65 202.66 294.3 203 296 C203.66 296 204.32 296 205 296 C205 296.66 205 297.32 205 298 C205.66 298 206.32 298 207 298 C207.33 298.99 207.66 299.98 208 301 C208.66 301 209.32 301 210 301 C210 301.66 210 302.32 210 303 C210.66 303 211.32 303 212 303 C212.33 303.99 212.66 304.98 213 306 C213.66 306 214.32 306 215 306 C215 306.66 215 307.32 215 308 C215.66 308 216.32 308 217 308 C217 308.66 217 309.32 217 310 C217.66 310 218.32 310 219 310 C219.33 310.99 219.66 311.98 220 313 C220.66 313 221.32 313 222 313 C222 313.66 222 314.32 222 315 C222.66 315 223.32 315 224 315 C224.33 315.99 224.66 316.98 225 318 C225.66 318 226.32 318 227 318 C227 318.66 227 319.32 227 320 C227.66 320 228.32 320 229 320 C229 320.66 229 321.32 229 322 C229.66 322 230.32 322 231 322 C231.33 322.99 231.66 323.98 232 325 C232.66 325 233.32 325 234 325 C234 325.66 234 326.32 234 327 C234.66 327 235.32 327 236 327 C236.33 327.99 236.66 328.98 237 330 C237.66 330 238.32 330 239 330 C239 330.66 239 331.32 239 332 C239.66 332 240.32 332 241 332 C241 332.66 241 333.32 241 334 C241.66 334 242.32 334 243 334 C243.33 334.99 243.66 335.98 244 337 C245.32 337 246.64 337 248 337 C248.4021875 337.9590625 248.4021875 337.9590625 248.8125 338.9375 C249.88667752 341.33131686 249.88667752 341.33131686 253 342 C253 342.66 253 343.32 253 344 C253.66 344 254.32 344 255 344 C255.33 344.99 255.66 345.98 256 347 C257.32 347 258.64 347 260 347 C260 347.66 260 348.32 260 349 C260.66 349 261.32 349 262 349 C262.2475 349.639375 262.495 350.27875 262.75 350.9375 C263.81562433 353.18741541 263.81562433 353.18741541 266.125 353.75 C266.74375 353.8325 267.3625 353.915 268 354 C268 354.66 268 355.32 268 356 C268.66 356 269.32 356 270 356 C270 356.66 270 357.32 270 358 C272.31 358.33 274.62 358.66 277 359 C277 359.66 277 360.32 277 361 C277.99 361 278.98 361 280 361 C280 361.66 280 362.32 280 363 C282.97 363.33 285.94 363.66 289 364 C289 364.66 289 365.32 289 366 C289.99 366 290.98 366 292 366 C292 366.66 292 367.32 292 368 C302.86229222 371.13550703 311.86862428 371.43630654 323 370 C323 369.34 323 368.68 323 368 C324.65 368 326.3 368 328 368 C328 367.34 328 366.68 328 366 C328.5775 365.87625 329.155 365.7525 329.75 365.625 C332.02335767 364.99351176 333.9253529 364.11141809 336 363 C336 362.34 336 361.68 336 361 C337.32 361 338.64 361 340 361 C340 360.34 340 359.68 340 359 C341.65 358.67 343.3 358.34 345 358 C345 357.34 345 356.68 345 356 C345.99 356 346.98 356 348 356 C348 355.34 348 354.68 348 354 C348.639375 353.7525 349.27875 353.505 349.9375 353.25 C352.18741541 352.18437567 352.18741541 352.18437567 352.75 349.875 C352.8325 349.25625 352.915 348.6375 353 348 C353.66 348 354.32 348 355 348 C355 346.02 355 344.04 355 342 C355.66 342 356.32 342 357 342 C357 338.7 357 335.4 357 332 C356.67 332 356.34 332 356 332 C355.79503906 331.16855469 355.59007812 330.33710938 355.37890625 329.48046875 C355.10949219 328.39378906 354.84007812 327.30710937 354.5625 326.1875 C354.29566406 325.10855469 354.02882813 324.02960938 353.75390625 322.91796875 C353.23922588 320.9259157 352.65062825 318.95188476 352 317 C351.34 317 350.68 317 350 317 C350 316.34 350 315.68 350 315 C349.01 314.34 348.02 313.68 347 313 C347 312.01 347 311.02 347 310 C345.68 309.67 344.36 309.34 343 309 C343 308.34 343 307.68 343 307 C342.34 307 341.68 307 341 307 C340.67 305.68 340.34 304.36 340 303 C338.68 302.67 337.36 302.34 336 302 C335.67 300.68 335.34 299.36 335 298 C333.68 297.67 332.36 297.34 331 297 C331 296.34 331 295.68 331 295 C330.34 295 329.68 295 329 295 C328.67 293.68 328.34 292.36 328 291 C327.34 291 326.68 291 326 291 C326 290.01 326 289.02 326 288 C325.01 288 324.02 288 323 288 C323 287.01 323 286.02 323 285 C321.68 285 320.36 285 319 285 C319 283.68 319 282.36 319 281 C318.01 281 317.02 281 316 281 C316 280.34 316 279.68 316 279 C314.68 278.67 313.36 278.34 312 278 C311.67 276.68 311.34 275.36 311 274 C309.68 273.67 308.36 273.34 307 273 C306.938125 272.38125 306.87625 271.7625 306.8125 271.125 C306.4103125 270.073125 306.4103125 270.073125 306 269 C304.34795544 268.29788106 302.68076231 267.63028587 301 267 C300.67 266.01 300.34 265.02 300 264 C299.01 264 298.02 264 297 264 C297 263.34 297 262.68 297 262 C296.34 262 295.68 262 295 262 C294.67 261.01 294.34 260.02 294 259 C293.34 259 292.68 259 292 259 C292 258.34 292 257.68 292 257 C290.68 257 289.36 257 288 257 C287.67 256.01 287.34 255.02 287 254 C286.34 254 285.68 254 285 254 C285 253.34 285 252.68 285 252 C284.34 252 283.68 252 283 252 C282.67 251.01 282.34 250.02 282 249 C280.68 249 279.36 249 278 249 C278 248.34 278 247.68 278 247 C277.34 247 276.68 247 276 247 C275.5978125 246.0409375 275.5978125 246.0409375 275.1875 245.0625 C274.11332248 242.66868314 274.11332248 242.66868314 271 242 C271 241.34 271 240.68 271 240 C270.01 240 269.02 240 268 240 C268 239.34 268 238.68 268 238 C265.66666667 235.33333333 265.66666667 235.33333333 263 233 C262.34 233 261.68 233 261 233 C261 232.34 261 231.68 261 231 C259.66666667 229.33333333 259.66666667 229.33333333 258 228 C257.34 228 256.68 228 256 228 C256 227.34 256 226.68 256 226 C254.79252059 224.29209912 254.79252059 224.29209912 253 223 C251.68 223 250.36 223 249 223 C249 222.34 249 221.68 249 221 C247.35 220.67 245.7 220.34 244 220 C244 219.34 244 218.68 244 218 C243.34 218 242.68 218 242 218 C242 217.34 242 216.68 242 216 C241.34 216 240.68 216 240 216 C239.505 214.515 239.505 214.515 239 213 C238.34 213 237.68 213 237 213 C237 212.34 237 211.68 237 211 C236.34 211 235.68 211 235 211 C234.773125 210.360625 234.54625 209.72125 234.3125 209.0625 C233.15983399 206.72567164 233.15983399 206.72567164 230.4375 206.375 C229.633125 206.25125 228.82875 206.1275 228 206 C227.505 205.01 227.505 205.01 227 204 Z " fill="#FFFFFF" transform="translate(47,21)"/>
</svg>
